{"title":"The Secret Diaries of Miss Anne Lister 2010 DVDRip GoGo","uid":5644395,"size":896929522,"categoryP":"video","categoryS":"movies","magnet":"?xt=urn:btih:c5b504cd0c06a170ffe675e1583ba7b7e7f3c8e4&amp;dn=The+Secret+Diaries+of+Miss+Anne+Lister+2010+DVDRip+GoGo&amp;tr=udp%3A%2F%2Ftracker.openbittorrent.com%3A80&amp;tr=udp%3A%2F%2Fopen.demonii.com%3A1337&amp;tr=udp%3A%2F%2Ftracker.coppersurfer.tk%3A6969&amp;tr=udp%3A%2F%2Fexodus.desync.com%3A6969","seeders":7,"leechers":0,"uploader":"fasamoo","files":8,"time":1277239679,"description":"\n\n[IMG]http://img686.imageshack.us/img686/9055/thesecretdiariesofmissa.jpg[/IMG]\n\n\nIn nineteenth century Yorkshire wealthy orphan Anne Lister lives with an aunt and uncle, anxious for her to marry well and blissfully unaware that she is a lesbian,recording her thoughts and exploits in a coded diary. When her lover Mariana Belcombe makes a marriage of convenience to rich old Charles Lawton,she feels betrayed and,although Mariana visits and has sex with her,the relationship is going nowhere. Helped by old flame Tib she makes a play for innocent Miss Browne but sees she is barking up the wrong tree and diverts herself by renovating the family hall. A drunken Tib almost exposes her secret and scornful mine-owner Christopher Rawson,whose marriage proposal she rejects,tells her that her sexuality is a subject of local gossip. Undeterred Anne meets Ann Walker who becomes her new 'wife' and they open a coal-mine ,living happily together. An end title tells us that Anne Lister died prematurely in 1840 on holiday in Russia.\n\n\n[IMG]http://img231.imageshack.us/img231/3898/bscap0007x.jpg[/IMG]\n[IMG]http://img85.imageshack.us/img85/4219/bscap0006kb.jpg[/IMG]\n[IMG]http://img85.imageshack.us/img85/345/bscap0005ni.jpg[/IMG]\n[IMG]http://img686.imageshack.us/img686/7117/bscap0004vi.jpg[/IMG]\n[IMG]http://img231.imageshack.us/img231/9594/bscap0003nx.jpg[/IMG]\n[IMG]http://img231.imageshack.us/img231/6766/bscap0000cx.jpg[/IMG]\n[IMG]http://img231.imageshack.us/img231/2262/thesecretdiariesofmissau.jpg[/IMG]\n\n\n\n \nGeneral\nComplete name                    : The Secret Diaries of Miss Anne Lister 2010 DVDRip GoGoThe Secret Diaries of Miss Anne Lister 2010 DVDRip GoGo.avi\nIMDB Link                        :[url]http://www.imdb.com/title/tt1555126/[/url]\nFormat                           : AVI\nFormat/Info                      : Audio Video Interleave\nFile size                        : 855 MiB\nDuration                         : 1h 31mn\nOverall bit rate                 : 1 308 Kbps\nWriting application              : Lavf51.12.1\n\nVideo\nID                               : 0\nFormat                           : MPEG-4 Visual\nFormat profile                   : Simple@L1\nFormat settings, BVOP            : No\nFormat settings, QPel            : No\nFormat settings, GMC             : No warppoints\nFormat settings, Matrix          : Default (H.263)\nCodec ID                         : DX50\nCodec ID/Hint                    : DivX 5\nDuration                         : 1h 31mn\nBit rate                         : 1 167 Kbps\nWidth                            : 624 pixels\nHeight                           : 352 pixels\nDisplay aspect ratio             : 16:9\nFrame rate                       : 25.000 fps\nColor space                      : YUV\nChroma subsampling               : 4:2:0\nBit depth                        : 8 bits\nScan type                        : Progressive\nBits/(Pixel*Frame)               : 0.212\nStream size                      : 763 MiB (89%)\nWriting library                  : Lavc51.40.4\n\nAudio\nID                               : 1\nFormat                           : MPEG Audio\nFormat version                   : Version 1\nFormat profile                   : Layer 3\nMode                             : Joint stereo\nMode extension                   : MS Stereo\nCodec ID                         : 55\nCodec ID/Hint                    : MP3\nDuration                         : 1h 31mn\nBit rate mode                    : Constant\nBit rate                         : 128 Kbps\nChannel(s)                       : 2 channels\nSampling rate                    : 48.0 KHz\nStream size                      : 83.7 MiB (10%)\nAlignment                        : Aligned on interleaves\nInterleave, duration             : 24 ms (0.60 video frame)\nInterleave, preload duration     : 24 ms\nWriting library                  : LAME3.97\nLanguage                         : English\nSubtitles                        : None\nGenre                            : Drama\n\n[img]http://imgboot.com/images/fasamoo/pleaseseed.gif[/img]","torrent":{"xt":"urn:btih:c5b504cd0c06a170ffe675e1583ba7b7e7f3c8e4","amp;dn":"The+Secret+Diaries+of+Miss+Anne+Lister+2010+DVDRip+GoGo","amp;tr":["udp%3A%2F%2Ftracker.openbittorrent.com%3A80","udp%3A%2F%2Fopen.demonii.com%3A1337","udp%3A%2F%2Ftracker.coppersurfer.tk%3A6969","udp%3A%2F%2Fexodus.desync.com%3A6969"],"infoHash":"c5b504cd0c06a170ffe675e1583ba7b7e7f3c8e4","infoHashBuffer":{"type":"Buffer","data":[197,181,4,205,12,6,161,112,255,230,117,225,88,59,167,183,231,243,200,228]},"announce":[],"urlList":[]}}